# xmcd CD database file
#
# Track frame offsets:
#	200
#	25827
#	52002
#	66395
#	86222
#	117050
#	133782
#	160860
#	178410
#	200892
#	227612
#
# Disc length: 3450 seconds
#
# Revision: 0
# Processed by: cddbd v1.5.2PL0 Copyright (c) Steve Scherf et al.
# Submitted via: CDex 1.51
#
DISCID=a20d780b
DTITLE=Various Artist - New Orleans Jazz Gumbo (Jazz, Blues and Gospel)
DYEAR=1991
DGENRE=Jazz
TTITLE0=Boga Boga
TTITLE1=Tell Me Why
TTITLE2=Win Your Love For Me
TTITLE3=Who Shot The Lala
TTITLE4=Liver Quiver
TTITLE5=I'm So Glad Today Is Sunday
TTITLE6=New Second Line
TTITLE7=A Tribute To My Friend Joe
TTITLE8=Surely
TTITLE9=Mr. Bojangles
TTITLE10=Down On The Bayou
EXTD=YEAR: 1991
EXTT0=
EXTT1=
EXTT2=
EXTT3=
EXTT4=
EXTT5=
EXTT6=
EXTT7=
EXTT8=
EXTT9=
EXTT10=
PLAYORDER=
